<svg width="1200" height="900" viewBox="0 0 1200 900" fill="none" xmlns="http://www.w3.org/2000/svg" role="img" aria-label="Student portal illustration showing mobile scheduling, intake, and messaging cards">
  <defs>
    <linearGradient id="bg" x1="176" y1="108" x2="1044" y2="820" gradientUnits="userSpaceOnUse">
      <stop stop-color="#F1E2B3" stop-opacity="0.44" />
      <stop offset="0.54" stop-color="#DAEDE3" stop-opacity="0.34" />
      <stop offset="1" stop-color="#0D7B72" stop-opacity="0.18" />
    </linearGradient>
    <linearGradient id="brand" x1="270" y1="220" x2="960" y2="718" gradientUnits="userSpaceOnUse">
      <stop stop-color="#119087" />
      <stop offset="1" stop-color="#113741" />
    </linearGradient>
    <linearGradient id="surface" x1="0" y1="0" x2="0" y2="1">
      <stop stop-color="#FFFFFF" stop-opacity="0.95" />
      <stop offset="1" stop-color="#F7FBFA" stop-opacity="0.88" />
    </linearGradient>
    <filter id="shadow" x="-25%" y="-25%" width="150%" height="150%" color-interpolation-filters="sRGB">
      <feDropShadow dx="0" dy="18" stdDeviation="18" flood-color="#0B2027" flood-opacity="0.12" />
    </filter>
  </defs>

  <path d="M204 224C276 92 452 64 586 108C748 160 760 52 902 86C1058 124 1140 294 1092 452C1050 590 1134 666 1060 768C978 880 774 848 622 800C490 758 296 790 220 658C150 528 140 360 204 224Z" fill="url(#bg)" />

  <g opacity="0.7" stroke="#0C2631" stroke-opacity="0.12" stroke-width="3" stroke-linecap="round">
    <path d="M308 266C394 246 474 264 550 320" />
    <path d="M418 690C518 650 620 652 728 702" />
    <path d="M550 320C650 362 738 360 818 314" />
  </g>

  <g filter="url(#shadow)">
    <rect x="744" y="122" width="286" height="636" rx="58" fill="url(#surface)" stroke="#0C2631" stroke-opacity="0.1" stroke-width="2" />
    <rect x="772" y="162" width="230" height="556" rx="42" fill="#FFFFFF" fill-opacity="0.86" stroke="#0C2631" stroke-opacity="0.08" stroke-width="2" />
    <rect x="846" y="136" width="82" height="10" rx="5" fill="#0C2631" fill-opacity="0.14" />

    <rect x="796" y="194" width="182" height="48" rx="24" fill="#EEF7F3" stroke="#0D7B72" stroke-opacity="0.14" stroke-width="2" />
    <circle cx="824" cy="218" r="8" fill="#0D7B72" />
    <rect x="842" y="210" width="110" height="16" rx="8" fill="#113741" fill-opacity="0.42" />

    <rect x="796" y="268" width="182" height="182" rx="30" fill="#FFFFFF" fill-opacity="0.92" stroke="#0C2631" stroke-opacity="0.08" stroke-width="2" />
    <rect x="820" y="296" width="126" height="14" rx="7" fill="#0C2631" fill-opacity="0.12" />
    <rect x="820" y="320" width="90" height="10" rx="5" fill="#0C2631" fill-opacity="0.08" />
    <rect x="820" y="350" width="134" height="66" rx="20" fill="#EFF6F4" />
    <rect x="838" y="372" width="90" height="12" rx="6" fill="#0C2631" fill-opacity="0.12" />
    <rect x="838" y="394" width="60" height="10" rx="5" fill="#0C2631" fill-opacity="0.08" />
    <circle cx="928" cy="383" r="18" fill="#DCEFE6" />
    <path d="M918 383L925 390L938 376" stroke="#0D7B72" stroke-width="3.5" stroke-linecap="round" stroke-linejoin="round" />

    <rect x="796" y="474" width="182" height="88" rx="24" fill="#FFFFFF" fill-opacity="0.92" stroke="#0C2631" stroke-opacity="0.08" stroke-width="2" />
    <rect x="820" y="498" width="98" height="12" rx="6" fill="#0C2631" fill-opacity="0.12" />
    <rect x="820" y="520" width="122" height="10" rx="5" fill="#0C2631" fill-opacity="0.08" />
    <rect x="820" y="540" width="78" height="10" rx="5" fill="#0D7B72" fill-opacity="0.18" />
    <circle cx="930" cy="516" r="20" fill="#F1E2B3" />
    <path d="M920 516H940" stroke="#113741" stroke-opacity="0.44" stroke-width="3.2" stroke-linecap="round" />
    <path d="M930 506V526" stroke="#113741" stroke-opacity="0.44" stroke-width="3.2" stroke-linecap="round" />

    <rect x="796" y="584" width="182" height="98" rx="24" fill="url(#brand)" />
    <rect x="820" y="614" width="98" height="12" rx="6" fill="#FFFFFF" fill-opacity="0.78" />
    <rect x="820" y="638" width="72" height="10" rx="5" fill="#FFFFFF" fill-opacity="0.56" />
    <rect x="920" y="608" width="26" height="26" rx="13" fill="#FFFFFF" fill-opacity="0.18" />
  </g>

  <g filter="url(#shadow)">
    <rect x="186" y="190" width="272" height="126" rx="30" fill="url(#surface)" stroke="#0C2631" stroke-opacity="0.1" stroke-width="2" />
    <rect x="216" y="224" width="120" height="14" rx="7" fill="#0C2631" fill-opacity="0.12" />
    <rect x="216" y="248" width="148" height="10" rx="5" fill="#0C2631" fill-opacity="0.08" />
    <rect x="216" y="272" width="86" height="30" rx="15" fill="#DCEFE6" />
    <rect x="318" y="272" width="108" height="30" rx="15" fill="#EFF6F4" />
    <path d="M376 220L388 232L410 210" stroke="#0D7B72" stroke-width="4" stroke-linecap="round" stroke-linejoin="round" />
  </g>

  <g filter="url(#shadow)">
    <rect x="226" y="364" width="332" height="160" rx="34" fill="url(#surface)" stroke="#0C2631" stroke-opacity="0.1" stroke-width="2" />
    <rect x="258" y="400" width="156" height="14" rx="7" fill="#0C2631" fill-opacity="0.12" />
    <rect x="258" y="424" width="196" height="10" rx="5" fill="#0C2631" fill-opacity="0.08" />
    <rect x="258" y="454" width="110" height="38" rx="19" fill="#EFF6F4" />
    <path d="M296 473H330" stroke="#113741" stroke-opacity="0.34" stroke-width="3.5" stroke-linecap="round" />
    <rect x="392" y="394" width="132" height="96" rx="26" fill="#FFFFFF" fill-opacity="0.92" stroke="#0C2631" stroke-opacity="0.08" stroke-width="2" />
    <rect x="416" y="420" width="82" height="12" rx="6" fill="#0C2631" fill-opacity="0.12" />
    <rect x="416" y="444" width="94" height="10" rx="5" fill="#0C2631" fill-opacity="0.08" />
    <rect x="416" y="464" width="68" height="10" rx="5" fill="#0D7B72" fill-opacity="0.18" />
  </g>

  <g filter="url(#shadow)">
    <rect x="290" y="562" width="322" height="150" rx="36" fill="url(#surface)" stroke="#0C2631" stroke-opacity="0.1" stroke-width="2" />
    <rect x="324" y="598" width="154" height="14" rx="7" fill="#0C2631" fill-opacity="0.12" />
    <rect x="324" y="622" width="202" height="10" rx="5" fill="#0C2631" fill-opacity="0.08" />
    <rect x="324" y="652" width="230" height="22" rx="11" fill="#EFF6F4" />
    <rect x="324" y="688" width="130" height="10" rx="5" fill="#0C2631" fill-opacity="0.08" />
    <circle cx="544" cy="620" r="22" fill="#F1E2B3" />
    <path d="M536 620H552" stroke="#113741" stroke-opacity="0.44" stroke-width="3.5" stroke-linecap="round" />
    <path d="M544 612V628" stroke="#113741" stroke-opacity="0.44" stroke-width="3.5" stroke-linecap="round" />
  </g>
</svg>
