<svg width="1200" height="900" viewBox="0 0 1200 900" fill="none" xmlns="http://www.w3.org/2000/svg" role="img" aria-label="Abstract OzEHR illustration showing coordinated workflow surfaces">
  <defs>
    <linearGradient id="bg" x1="176" y1="112" x2="1028" y2="816" gradientUnits="userSpaceOnUse">
      <stop stop-color="#F2E3B6" stop-opacity="0.42" />
      <stop offset="0.52" stop-color="#DCEEE4" stop-opacity="0.36" />
      <stop offset="1" stop-color="#0D7B72" stop-opacity="0.18" />
    </linearGradient>
    <linearGradient id="brand" x1="336" y1="180" x2="918" y2="720" gradientUnits="userSpaceOnUse">
      <stop stop-color="#119087" />
      <stop offset="1" stop-color="#113741" />
    </linearGradient>
    <linearGradient id="surface" x1="0" y1="0" x2="0" y2="1">
      <stop stop-color="#FFFFFF" stop-opacity="0.95" />
      <stop offset="1" stop-color="#F6FBF9" stop-opacity="0.88" />
    </linearGradient>
    <filter id="shadow" x="-25%" y="-25%" width="150%" height="150%" color-interpolation-filters="sRGB">
      <feDropShadow dx="0" dy="18" stdDeviation="18" flood-color="#0B2027" flood-opacity="0.12" />
    </filter>
  </defs>

  <path d="M192 218C262 84 446 62 590 108C752 160 768 54 912 88C1064 124 1148 296 1100 452C1058 590 1142 666 1068 770C986 882 772 850 620 802C488 760 290 792 218 658C152 534 142 354 192 218Z" fill="url(#bg)" />

  <g opacity="0.72" stroke="#0C2631" stroke-opacity="0.12" stroke-width="3" stroke-linecap="round">
    <path d="M284 292C382 266 468 280 558 340" />
    <path d="M558 340C666 386 756 384 860 328" />
    <path d="M458 694C564 648 684 648 806 694" />
  </g>

  <g filter="url(#shadow)">
    <rect x="154" y="190" width="250" height="486" rx="34" fill="url(#surface)" stroke="#0C2631" stroke-opacity="0.1" stroke-width="2" />
    <rect x="184" y="224" width="108" height="14" rx="7" fill="#0C2631" fill-opacity="0.12" />
    <rect x="184" y="248" width="146" height="10" rx="5" fill="#0C2631" fill-opacity="0.08" />
    <rect x="184" y="286" width="192" height="62" rx="20" fill="#EFF6F4" />
    <rect x="202" y="308" width="108" height="10" rx="5" fill="#0C2631" fill-opacity="0.12" />
    <rect x="202" y="326" width="144" height="10" rx="5" fill="#0C2631" fill-opacity="0.08" />
    <rect x="184" y="370" width="192" height="62" rx="20" fill="#FFFFFF" fill-opacity="0.9" stroke="#0C2631" stroke-opacity="0.08" stroke-width="2" />
    <rect x="202" y="392" width="120" height="10" rx="5" fill="#0C2631" fill-opacity="0.12" />
    <rect x="202" y="410" width="90" height="10" rx="5" fill="#0C2631" fill-opacity="0.08" />
    <rect x="184" y="454" width="192" height="62" rx="20" fill="#FFFFFF" fill-opacity="0.9" stroke="#0C2631" stroke-opacity="0.08" stroke-width="2" />
    <rect x="202" y="476" width="134" height="10" rx="5" fill="#0C2631" fill-opacity="0.12" />
    <rect x="202" y="494" width="102" height="10" rx="5" fill="#0C2631" fill-opacity="0.08" />
    <rect x="184" y="540" width="150" height="34" rx="17" fill="url(#brand)" />
    <rect x="202" y="552" width="70" height="10" rx="5" fill="#FFFFFF" fill-opacity="0.78" />
  </g>

  <g filter="url(#shadow)">
    <rect x="438" y="132" width="532" height="332" rx="40" fill="url(#surface)" stroke="#0C2631" stroke-opacity="0.1" stroke-width="2" />
    <rect x="474" y="170" width="178" height="16" rx="8" fill="#0C2631" fill-opacity="0.12" />
    <rect x="782" y="164" width="152" height="26" rx="13" fill="#EEF7F3" stroke="#0D7B72" stroke-opacity="0.14" stroke-width="2" />
    <circle cx="808" cy="177" r="6" fill="#0D7B72" />
    <rect x="822" y="172" width="86" height="10" rx="5" fill="#113741" fill-opacity="0.36" />
    <rect x="474" y="220" width="146" height="112" rx="24" fill="#F8FBFA" stroke="#0C2631" stroke-opacity="0.08" stroke-width="2" />
    <rect x="498" y="246" width="82" height="12" rx="6" fill="#0C2631" fill-opacity="0.12" />
    <rect x="498" y="270" width="98" height="10" rx="5" fill="#0C2631" fill-opacity="0.08" />
    <rect x="498" y="294" width="72" height="10" rx="5" fill="#0D7B72" fill-opacity="0.18" />
    <rect x="646" y="220" width="146" height="112" rx="24" fill="#F8FBFA" stroke="#0C2631" stroke-opacity="0.08" stroke-width="2" />
    <rect x="670" y="246" width="92" height="12" rx="6" fill="#0C2631" fill-opacity="0.12" />
    <rect x="670" y="270" width="110" height="10" rx="5" fill="#0C2631" fill-opacity="0.08" />
    <rect x="670" y="294" width="80" height="10" rx="5" fill="#0D7B72" fill-opacity="0.18" />
    <rect x="818" y="220" width="116" height="112" rx="24" fill="url(#brand)" />
    <rect x="844" y="252" width="64" height="12" rx="6" fill="#FFFFFF" fill-opacity="0.78" />
    <rect x="844" y="276" width="48" height="10" rx="5" fill="#FFFFFF" fill-opacity="0.54" />
    <rect x="844" y="300" width="56" height="12" rx="6" fill="#FFFFFF" fill-opacity="0.2" />
    <rect x="474" y="362" width="424" height="62" rx="24" fill="#FFFFFF" fill-opacity="0.9" stroke="#0C2631" stroke-opacity="0.08" stroke-width="2" />
    <rect x="500" y="386" width="178" height="12" rx="6" fill="#0C2631" fill-opacity="0.12" />
    <rect x="698" y="386" width="174" height="12" rx="6" fill="#0D7B72" fill-opacity="0.18" />
  </g>

  <g filter="url(#shadow)">
    <rect x="438" y="512" width="594" height="232" rx="40" fill="url(#surface)" stroke="#0C2631" stroke-opacity="0.1" stroke-width="2" />
    <rect x="474" y="552" width="160" height="16" rx="8" fill="#0C2631" fill-opacity="0.12" />
    <rect x="474" y="590" width="518" height="42" rx="21" fill="#FFFFFF" fill-opacity="0.92" stroke="#0C2631" stroke-opacity="0.08" stroke-width="2" />
    <rect x="498" y="605" width="150" height="12" rx="6" fill="#0C2631" fill-opacity="0.12" />
    <rect x="836" y="600" width="126" height="22" rx="11" fill="#EEF7F3" stroke="#0D7B72" stroke-opacity="0.16" stroke-width="2" />
    <rect x="474" y="646" width="518" height="42" rx="21" fill="#FFFFFF" fill-opacity="0.92" stroke="#0C2631" stroke-opacity="0.08" stroke-width="2" />
    <rect x="498" y="661" width="196" height="12" rx="6" fill="#0C2631" fill-opacity="0.12" />
    <rect x="820" y="656" width="142" height="22" rx="11" fill="url(#brand)" />
    <rect x="854" y="662" width="74" height="10" rx="5" fill="#FFFFFF" fill-opacity="0.76" />
  </g>

  <g filter="url(#shadow)">
    <rect x="980" y="226" width="152" height="372" rx="30" fill="#FFFFFF" fill-opacity="0.9" stroke="#0C2631" stroke-opacity="0.08" stroke-width="2" />
    <rect x="1006" y="260" width="88" height="12" rx="6" fill="#0C2631" fill-opacity="0.12" />
    <rect x="1006" y="286" width="64" height="10" rx="5" fill="#0C2631" fill-opacity="0.08" />
    <rect x="1006" y="326" width="100" height="88" rx="24" fill="#F6FBF9" stroke="#0C2631" stroke-opacity="0.08" stroke-width="2" />
    <rect x="1028" y="354" width="56" height="12" rx="6" fill="#0C2631" fill-opacity="0.12" />
    <rect x="1028" y="378" width="40" height="10" rx="5" fill="#0C2631" fill-opacity="0.08" />
    <rect x="1006" y="438" width="100" height="88" rx="24" fill="url(#brand)" />
    <rect x="1028" y="466" width="56" height="12" rx="6" fill="#FFFFFF" fill-opacity="0.78" />
    <rect x="1028" y="490" width="34" height="10" rx="5" fill="#FFFFFF" fill-opacity="0.54" />
  </g>

  <g fill="#0D7B72" fill-opacity="0.2">
    <circle cx="588" cy="392" r="8" />
    <circle cx="588" cy="610" r="8" />
    <circle cx="946" cy="392" r="8" />
  </g>
</svg>
