<svg width="1200" height="900" viewBox="0 0 1200 900" fill="none" xmlns="http://www.w3.org/2000/svg" role="img" aria-label="Abstract OzEHR illustration">
  <defs>
    <linearGradient id="g1" x1="190" y1="110" x2="990" y2="800" gradientUnits="userSpaceOnUse">
      <stop stop-color="#0F766E" stop-opacity="0.18"/>
      <stop offset="0.55" stop-color="#F4E4A8" stop-opacity="0.34"/>
      <stop offset="1" stop-color="#D8F0D9" stop-opacity="0.28"/>
    </linearGradient>
    <linearGradient id="brand" x1="0" y1="0" x2="1" y2="1">
      <stop stop-color="#0F766E"/>
      <stop offset="1" stop-color="#185B57"/>
    </linearGradient>
    <filter id="shadow" x="-20%" y="-20%" width="140%" height="140%" color-interpolation-filters="sRGB">
      <feDropShadow dx="0" dy="18" stdDeviation="18" flood-color="#0C1F1F" flood-opacity="0.12"/>
    </filter>
  </defs>

  <!-- Soft background blob -->
  <path d="M192 210C240 92 410 52 538 88C696 132 708 30 842 60C1020 102 1122 262 1084 416C1050 552 1144 634 1066 744C980 868 764 840 622 792C496 750 284 790 210 650C142 516 136 342 192 210Z" fill="url(#g1)"/>

  <!-- Floating cards -->
  <g filter="url(#shadow)">
    <rect x="160" y="160" width="450" height="230" rx="34" fill="rgba(255,255,255,0.82)" stroke="rgba(12,31,31,0.10)"/>
    <rect x="196" y="198" width="378" height="44" rx="18" fill="rgba(255,255,255,0.78)" stroke="rgba(12,31,31,0.10)"/>
    <circle cx="224" cy="220" r="6" fill="rgba(180,35,24,0.55)"/>
    <circle cx="242" cy="220" r="6" fill="rgba(240,176,0,0.55)"/>
    <circle cx="260" cy="220" r="6" fill="rgba(33,135,79,0.55)"/>
    <rect x="196" y="260" width="250" height="18" rx="9" fill="rgba(12,31,31,0.12)"/>
    <rect x="196" y="290" width="340" height="14" rx="7" fill="rgba(12,31,31,0.10)"/>
    <rect x="196" y="318" width="290" height="14" rx="7" fill="rgba(12,31,31,0.10)"/>
    <rect x="470" y="266" width="104" height="40" rx="20" fill="rgba(216,240,217,0.72)" stroke="rgba(12,31,31,0.10)"/>
    <path d="M510 278H520" stroke="#185B57" stroke-width="3" stroke-linecap="round"/>
    <path d="M515 273V283" stroke="#185B57" stroke-width="3" stroke-linecap="round"/>

    <rect x="610" y="280" width="430" height="260" rx="34" fill="rgba(255,255,255,0.80)" stroke="rgba(12,31,31,0.10)"/>
    <rect x="646" y="318" width="244" height="18" rx="9" fill="rgba(12,31,31,0.12)"/>
    <rect x="646" y="352" width="340" height="14" rx="7" fill="rgba(12,31,31,0.10)"/>
    <rect x="646" y="380" width="300" height="14" rx="7" fill="rgba(12,31,31,0.10)"/>
    <rect x="646" y="420" width="360" height="14" rx="7" fill="rgba(12,31,31,0.10)"/>

    <rect x="646" y="458" width="320" height="12" rx="6" fill="rgba(12,31,31,0.10)"/>
    <rect x="646" y="458" width="212" height="12" rx="6" fill="url(#brand)"/>

    <rect x="680" y="580" width="340" height="130" rx="34" fill="rgba(255,255,255,0.78)" stroke="rgba(12,31,31,0.10)"/>
    <rect x="716" y="614" width="220" height="16" rx="8" fill="rgba(12,31,31,0.12)"/>
    <rect x="716" y="644" width="280" height="14" rx="7" fill="rgba(12,31,31,0.10)"/>
    <rect x="716" y="672" width="250" height="14" rx="7" fill="rgba(12,31,31,0.10)"/>
  </g>

  <!-- Tiny orbit dots (SMIL animation keeps it lively) -->
  <g opacity="0.9">
    <circle cx="1010" cy="210" r="6" fill="#F4E4A8"/>
    <circle cx="1028" cy="228" r="4" fill="#D8F0D9"/>
    <circle cx="996" cy="238" r="4" fill="#0F766E" fill-opacity="0.5"/>
    <animateTransform attributeName="transform" type="rotate" from="0 1010 230" to="360 1010 230" dur="18s" repeatCount="indefinite"/>
  </g>
</svg>
