<svg width="1200" height="900" viewBox="0 0 1200 900" fill="none" xmlns="http://www.w3.org/2000/svg" role="img" aria-label="Doctor seeing a student">
  <defs>
    <linearGradient id="bg" x1="160" y1="140" x2="1040" y2="820" gradientUnits="userSpaceOnUse">
      <stop stop-color="#0F766E" stop-opacity="0.16"/>
      <stop offset="0.45" stop-color="#F4E4A8" stop-opacity="0.34"/>
      <stop offset="1" stop-color="#D8F0D9" stop-opacity="0.28"/>
    </linearGradient>
    <linearGradient id="brand" x1="0" y1="0" x2="1" y2="1">
      <stop stop-color="#0F766E"/>
      <stop offset="1" stop-color="#185B57"/>
    </linearGradient>
    <filter id="shadow" x="-25%" y="-25%" width="150%" height="150%" color-interpolation-filters="sRGB">
      <feDropShadow dx="0" dy="18" stdDeviation="18" flood-color="#0C1F1F" flood-opacity="0.12"/>
    </filter>
  </defs>

  <path d="M198 218C280 86 460 64 600 112C770 170 778 54 920 92C1078 136 1162 304 1112 466C1070 602 1160 668 1078 776C986 894 770 860 616 810C486 768 296 792 218 658C144 520 136 354 198 218Z" fill="url(#bg)"/>

  <!-- Exam room cards -->
  <g filter="url(#shadow)">
    <rect x="148" y="154" width="390" height="188" rx="34" fill="rgba(255,255,255,0.82)" stroke="rgba(12,31,31,0.10)"/>
    <rect x="186" y="200" width="310" height="18" rx="9" fill="rgba(12,31,31,0.12)"/>
    <rect x="186" y="230" width="260" height="14" rx="7" fill="rgba(12,31,31,0.10)"/>
    <rect x="186" y="256" width="290" height="14" rx="7" fill="rgba(12,31,31,0.10)"/>
    <rect x="186" y="284" width="160" height="14" rx="7" fill="rgba(12,31,31,0.10)"/>
    <rect x="386" y="270" width="110" height="44" rx="22" fill="rgba(216,240,217,0.72)" stroke="rgba(12,31,31,0.10)"/>

    <rect x="600" y="170" width="438" height="212" rx="34" fill="rgba(255,255,255,0.80)" stroke="rgba(12,31,31,0.10)"/>
    <rect x="638" y="216" width="260" height="18" rx="9" fill="rgba(12,31,31,0.12)"/>
    <rect x="638" y="246" width="312" height="14" rx="7" fill="rgba(12,31,31,0.10)"/>
    <rect x="638" y="272" width="286" height="14" rx="7" fill="rgba(12,31,31,0.10)"/>
    <rect x="638" y="310" width="340" height="12" rx="6" fill="rgba(12,31,31,0.10)"/>
    <rect x="638" y="310" width="212" height="12" rx="6" fill="url(#brand)"/>
  </g>

  <!-- Exam bed -->
  <g filter="url(#shadow)">
    <rect x="570" y="606" width="500" height="122" rx="50" fill="rgba(255,255,255,0.78)" stroke="rgba(12,31,31,0.12)" stroke-width="2"/>
    <rect x="606" y="638" width="238" height="58" rx="28" fill="rgba(216,240,217,0.52)" stroke="rgba(12,31,31,0.10)"/>
    <rect x="856" y="638" width="180" height="58" rx="28" fill="rgba(244,228,168,0.44)" stroke="rgba(12,31,31,0.10)"/>
  </g>

  <!-- Doctor -->
  <g filter="url(#shadow)">
    <circle cx="404" cy="458" r="64" fill="#F4E4A8"/>

    <path d="M304 716C322 612 374 558 448 558C522 558 574 612 592 716" fill="rgba(255,255,255,0.84)"/>
    <path d="M304 716C322 612 374 558 448 558C522 558 574 612 592 716" stroke="rgba(12,31,31,0.12)" stroke-width="2"/>

    <path d="M370 606C380 578 404 560 432 560H464C492 560 516 578 526 606" fill="rgba(15,118,110,0.18)"/>

    <!-- Stethoscope -->
    <path d="M396 590C396 556 430 544 448 566C466 544 500 556 500 590C500 640 448 636 448 676" stroke="#185B57" stroke-width="6" stroke-linecap="round" stroke-linejoin="round"/>
    <circle cx="448" cy="690" r="14" fill="rgba(216,240,217,0.78)" stroke="rgba(12,31,31,0.12)" stroke-width="2"/>
    <circle cx="448" cy="690" r="6" fill="#185B57" fill-opacity="0.65"/>
  </g>

  <!-- Student -->
  <g filter="url(#shadow)">
    <circle cx="776" cy="486" r="58" fill="#F4E4A8"/>
    <path d="M706 686C724 602 766 560 820 560C874 560 916 602 934 686" fill="rgba(15,118,110,0.18)"/>
    <path d="M706 686C724 602 766 560 820 560C874 560 916 602 934 686" stroke="rgba(12,31,31,0.12)" stroke-width="2"/>

    <!-- Backpack strap -->
    <path d="M796 564C760 592 744 632 744 682" stroke="rgba(12,31,31,0.16)" stroke-width="6" stroke-linecap="round"/>
    <path d="M844 564C880 592 896 632 896 682" stroke="rgba(12,31,31,0.16)" stroke-width="6" stroke-linecap="round"/>

    <!-- Small note card -->
    <rect x="830" y="612" width="124" height="72" rx="18" fill="rgba(255,255,255,0.80)" stroke="rgba(12,31,31,0.12)"/>
    <rect x="850" y="634" width="84" height="10" rx="5" fill="rgba(12,31,31,0.12)"/>
    <rect x="850" y="654" width="64" height="10" rx="5" fill="rgba(12,31,31,0.10)"/>
  </g>

  <!-- Small animated sparkles -->
  <g opacity="0.9">
    <path d="M1010 516L1022 554L1060 566L1022 578L1010 616L998 578L960 566L998 554L1010 516Z" fill="#0F766E" fill-opacity="0.35"/>
    <animateTransform attributeName="transform" type="rotate" from="0 1010 566" to="360 1010 566" dur="20s" repeatCount="indefinite"/>
  </g>
  <g opacity="0.9">
    <circle cx="206" cy="600" r="8" fill="#D8F0D9"/>
    <circle cx="230" cy="580" r="6" fill="#F4E4A8"/>
    <circle cx="188" cy="572" r="5" fill="#0F766E" fill-opacity="0.4"/>
    <animateTransform attributeName="transform" type="rotate" from="0 210 586" to="360 210 586" dur="18s" repeatCount="indefinite"/>
  </g>
</svg>
